# xmcd
#
# Track frame offsets:
# 150
# 23122
# 33073
# 40834
# 51897
# 63373
# 76484
# 86678
# 96997
# 107507
# 117491
#
# Disc length: 1700 seconds
#
#
# Revision: 0
# Processed by: cddbd v1.4PL0 Copyright (c) Steve Scherf et al.
# Submitted via: FreeRIP 2.00 
#
DISCID=8506a20b
DTITLE=Killer's Three Soundtrack - Killers Three Motion Picture Soundtrack
DYEAR=1900
DGENRE=Soundtrack
TTITLE0=Killers Three (Merle Haggard)
TTITLE1=Mama Tried (Merle Haggard)
TTITLE2=Gonna Have A Good Time (Kay Adams)
TTITLE3=Tears Instead Of Cheers (Dick Curless)
TTITLE4=Yes, I Love You (Bonnie Owens)
TTITLE5=All I Need Is You (Dick Curless)
TTITLE6=Maybe You'll Appreciate Me Someday (Kay Adams)
TTITLE7=The Way He's Gettin' To You (Don Epperson)
TTITLE8=Candlelight (Don Epperson)
TTITLE9=Let Yourself Go -- Live A Little (Honeysuckle Spring)
TTITLE10=Love Me Now And Forever (Kay Adams)
EXTD=
EXTT0=
EXTT1=
EXTT2=
EXTT3=
EXTT4=
EXTT5=
EXTT6=
EXTT7=
EXTT8=
EXTT9=
EXTT10=
PLAYORDER=
